<?xml version="1.0" standalone="no"?><!DOCTYPE svg PUBLIC "-//W3C//DTD SVG 1.1//EN" "http://www.w3.org/Graphics/SVG/1.1/DTD/svg11.dtd"><svg t="1750387783483" class="icon" viewBox="0 0 1344 1024" version="1.1" xmlns="http://www.w3.org/2000/svg" p-id="2814" xmlns:xlink="http://www.w3.org/1999/xlink" width="262.5" height="200"><path d="M1093.12 791.552h-501.76c-35.84 0-70.656-12.8-98.304-35.328-58.368-38.912-93.184-104.448-93.184-174.08 0-115.712 94.208-209.92 209.92-209.92 15.872 0 31.232 2.048 46.592 5.632 10.752-105.472 100.352-187.904 208.896-187.904 115.712 0 209.92 94.208 209.92 209.92 0 9.216-0.512 18.432-2.048 27.648 97.28 3.584 175.104 83.968 175.104 182.272 0 4.608-0.512 9.216-0.512 13.824 0.512 4.608 0.512 9.216 0.512 13.824 0 84.48-69.632 154.112-155.136 154.112zM609.28 408.576c-95.744 0-173.056 77.824-173.056 173.056 0 58.368 29.184 112.128 77.824 144.384l1.536 1.024c21.504 17.92 48.128 27.648 75.776 27.648h501.76c65.536 0 118.784-53.248 118.784-118.784 0-3.584 0-7.68-0.512-11.776v-3.072c0.512-4.096 0.512-8.192 0.512-12.288 0-80.384-65.536-145.92-145.92-145.92-4.096 0-8.192 0-13.312 0.512l-25.6 2.048 6.144-25.088c3.584-14.336 5.12-28.16 5.12-41.984 0-95.744-77.824-173.056-173.056-173.056s-174.08 78.336-174.08 174.08v28.16l-24.576-8.704c-18.432-7.168-37.888-10.24-57.344-10.24z" fill="#ffffff" p-id="2815"></path><path d="M800.768 600.064c-10.24 0-18.432-8.192-18.432-18.432 0-95.744-77.824-173.056-173.056-173.056-10.24 0-18.432-8.192-18.432-18.432s8.192-18.432 18.432-18.432c115.712 0 209.92 94.208 209.92 209.92 0 10.24-8.192 18.432-18.432 18.432z m171.008-95.744c-5.12 0-10.24-2.048-13.824-6.656-6.656-7.68-5.632-19.456 2.048-25.6 34.304-29.184 78.336-45.568 123.904-45.568 10.24 0 18.432 8.192 18.432 18.432s-8.192 18.432-18.432 18.432c-36.864 0-72.192 12.8-100.352 36.864-3.584 2.56-7.68 4.096-11.776 4.096z m-508.416 86.528c-5.12 0-9.216-4.096-9.216-9.216 0-85.504 69.632-155.136 155.136-155.136 5.12 0 9.216 4.096 9.216 9.216s-4.096 9.216-9.216 9.216c-75.264 0-136.704 61.44-136.704 136.704 0 5.12-4.096 9.216-9.216 9.216zM463.36 627.2c0 5.12 4.096 9.216 9.216 9.216s9.216-4.096 9.216-9.216-4.096-9.216-9.216-9.216-9.216 4.096-9.216 9.216zM223.232 791.552h352.768c10.24 0 18.432-8.192 18.432-18.432s-8.192-18.432-18.432-18.432H223.232c-10.24 0-18.432 8.192-18.432 18.432 0.512 10.24 8.704 18.432 18.432 18.432zM93.184 730.112h248.32c10.24 0 18.432-8.192 18.432-18.432s-8.192-18.432-18.432-18.432H93.184c-10.24 0-18.432 8.192-18.432 18.432 0.512 10.24 8.704 18.432 18.432 18.432zM168.96 785.92c7.168-7.168 7.168-18.432 0-25.6s-18.432-7.168-25.6 0-7.168 18.432 0 25.6c6.656 7.168 18.432 7.168 25.6 0z" fill="#ffffff" p-id="2816"></path></svg>